<svg xmlns="http://www.w3.org/2000/svg" viewBox="0 0 64 64" width="512px" height="512px"><linearGradient id="U0kkn5_avpEDKYeupbtE2a" x1="32.006" x2="32.006" y1="10.092" y2="58.092" gradientUnits="userSpaceOnUse"><stop offset="0" stop-color="#1a6dff"/><stop offset="1" stop-color="#c822ff"/></linearGradient><path fill="url(#U0kkn5_avpEDKYeupbtE2a)" d="M59.49,10.968c-0.004-0.033-0.005-0.066-0.013-0.099c-0.017-0.073-0.044-0.142-0.078-0.211	c-0.008-0.016-0.01-0.034-0.019-0.05c-0.001-0.002-0.004-0.004-0.005-0.006c-0.002-0.003-0.002-0.006-0.004-0.009	c-0.047-0.082-0.107-0.154-0.173-0.218c-0.014-0.014-0.032-0.023-0.047-0.036c-0.058-0.049-0.119-0.093-0.186-0.128	c-0.024-0.012-0.049-0.02-0.074-0.031c-0.062-0.026-0.125-0.047-0.192-0.061c-0.032-0.006-0.064-0.009-0.097-0.013	c-0.033-0.003-0.064-0.013-0.097-0.013h-53c-0.034,0-0.066,0.01-0.1,0.013c-0.032,0.003-0.064,0.006-0.095,0.013	c-0.066,0.013-0.128,0.034-0.189,0.06c-0.026,0.011-0.053,0.019-0.078,0.033c-0.064,0.034-0.122,0.076-0.177,0.122	c-0.018,0.015-0.038,0.026-0.055,0.042c-0.066,0.064-0.125,0.136-0.172,0.217c-0.002,0.003-0.002,0.006-0.004,0.009	c-0.001,0.002-0.004,0.004-0.005,0.006c-0.009,0.016-0.011,0.034-0.019,0.05c-0.033,0.068-0.061,0.138-0.078,0.211	c-0.008,0.033-0.009,0.065-0.013,0.099c-0.008,0.06-0.012,0.12-0.009,0.181c0.002,0.037,0.008,0.072,0.014,0.108	c0.009,0.057,0.023,0.112,0.043,0.166c0.013,0.036,0.026,0.07,0.043,0.105c0.01,0.021,0.015,0.043,0.026,0.064l26.5,46	c0.011,0.02,0.029,0.035,0.041,0.054c0.022,0.032,0.045,0.061,0.07,0.091c0.038,0.045,0.08,0.085,0.125,0.122	c0.029,0.024,0.057,0.047,0.088,0.068c0.053,0.034,0.109,0.061,0.167,0.084c0.03,0.012,0.058,0.028,0.089,0.037	c0.092,0.028,0.188,0.045,0.286,0.045s0.194-0.018,0.286-0.045c0.031-0.009,0.059-0.025,0.089-0.037	c0.058-0.024,0.115-0.05,0.167-0.085c0.031-0.02,0.059-0.044,0.088-0.068c0.045-0.037,0.087-0.077,0.125-0.122	c0.025-0.029,0.048-0.058,0.07-0.091c0.013-0.019,0.03-0.034,0.041-0.054l26.5-46c0.012-0.02,0.016-0.043,0.026-0.064	c0.017-0.034,0.03-0.069,0.043-0.105c0.019-0.055,0.033-0.11,0.043-0.166c0.006-0.036,0.012-0.071,0.014-0.108	C59.502,11.088,59.498,11.028,59.49,10.968z M45.178,12.092L32.006,14.08l-13.172-1.988H45.178z M38.888,31.092H25.124l6.882-13.764	L38.888,31.092z M30.496,15.876l-7.211,14.422L8.014,12.482L30.496,15.876z M11.725,19.884l10.897,12.713l5.145,15.133	L11.725,19.884z M32.006,53.986l-7.104-20.894H39.11L32.006,53.986z M36.246,47.73l5.145-15.133l10.897-12.713L36.246,47.73z M40.727,30.298l-7.211-14.422l22.482-3.394L40.727,30.298z"/><linearGradient id="U0kkn5_avpEDKYeupbtE2b" x1="32.006" x2="32.006" y1="21.092" y2="29.092" gradientUnits="userSpaceOnUse"><stop offset="0" stop-color="#6dc7ff"/><stop offset="1" stop-color="#e6abff"/></linearGradient><polygon fill="url(#U0kkn5_avpEDKYeupbtE2b)" points="32.006,21.092 28.006,29.092 36.006,29.092"/><linearGradient id="U0kkn5_avpEDKYeupbtE2c" x1="32.006" x2="32.006" y1="35.092" y2="48.328" gradientUnits="userSpaceOnUse"><stop offset="0" stop-color="#6dc7ff"/><stop offset="1" stop-color="#e6abff"/></linearGradient><polygon fill="url(#U0kkn5_avpEDKYeupbtE2c)" points="32.006,48.328 36.506,35.092 27.506,35.092"/><linearGradient id="U0kkn5_avpEDKYeupbtE2d" x1="20.256" x2="20.256" y1="15.262" y2="26.712" gradientUnits="userSpaceOnUse"><stop offset="0" stop-color="#6dc7ff"/><stop offset="1" stop-color="#e6abff"/></linearGradient><polygon fill="url(#U0kkn5_avpEDKYeupbtE2d)" points="22.846,26.712 27.476,17.442 13.036,15.262"/><linearGradient id="U0kkn5_avpEDKYeupbtE2e" x1="43.786" x2="43.786" y1="15.262" y2="26.712" gradientUnits="userSpaceOnUse"><stop offset="0" stop-color="#6dc7ff"/><stop offset="1" stop-color="#e6abff"/></linearGradient><polygon fill="url(#U0kkn5_avpEDKYeupbtE2e)" points="36.566,17.442 41.196,26.712 51.006,15.262"/></svg>